<?xml version="1.0" encoding="UTF-8" standalone="no"?>
<!DOCTYPE svg PUBLIC "-//W3C//DTD SVG 1.1//EN"
 "http://www.w3.org/Graphics/SVG/1.1/DTD/svg11.dtd">
<!-- Generated by graphviz version 9.0.0 (20230911.1827)
 -->
<!-- Title: G Pages: 1 -->
<svg width="385pt" height="317pt"
 viewBox="0.00 0.00 385.49 317.00" xmlns="http://www.w3.org/2000/svg" xmlns:xlink="http://www.w3.org/1999/xlink">
<g id="graph0" class="graph" transform="scale(1 1) rotate(0) translate(4 313)">
<title>G</title>
<polygon fill="white" stroke="none" points="-4,4 -4,-313 381.49,-313 381.49,4 -4,4"/>
<g id="clust1" class="cluster">
<title>cluster_windows</title>
<polygon fill="none" stroke="#cccccc" stroke-dasharray="5,2" points="8,-89 8,-220 127.75,-220 127.75,-89 8,-89"/>
<text text-anchor="middle" x="67.88" y="-202.7" font-family="Times,serif" font-size="14.00">Windows</text>
</g>
<g id="clust2" class="cluster">
<title>cluster_tags</title>
<polygon fill="none" stroke="#cccccc" stroke-dasharray="5,2" points="147.75,-62 147.75,-247 235.74,-247 235.74,-62 147.75,-62"/>
<text text-anchor="middle" x="191.75" y="-229.7" font-family="Times,serif" font-size="14.00">Tags</text>
</g>
<g id="clust3" class="cluster">
<title>cluster_cheatsheets</title>
<polygon fill="none" stroke="#cccccc" stroke-dasharray="5,2" points="255.74,-8 255.74,-301 369.49,-301 369.49,-8 255.74,-8"/>
<text text-anchor="middle" x="312.62" y="-283.7" font-family="Times,serif" font-size="14.00">Cheatsheets</text>
</g>
<!-- gnome_terminal -->
<g id="node1" class="node">
<title>gnome_terminal</title>
<polygon fill="none" stroke="black" points="119.75,-187 16,-187 16,-151 119.75,-151 119.75,-187"/>
<text text-anchor="middle" x="67.88" y="-163.95" font-family="Times,serif" font-size="14.00">gnome&#45;terminal</text>
</g>
<!-- tag_shell -->
<g id="node3" class="node">
<title>tag_shell</title>
<ellipse fill="none" stroke="black" cx="191.75" cy="-142" rx="28.32" ry="18"/>
<text text-anchor="middle" x="191.75" y="-136.95" font-family="Times,serif" font-size="14.00">shell</text>
</g>
<!-- gnome_terminal&#45;&#45;tag_shell -->
<g id="edge1" class="edge">
<title>gnome_terminal&#45;&#45;tag_shell</title>
<path fill="none" stroke="black" d="M120.21,-157.63C135.43,-154.26 151.47,-150.7 164.4,-147.84"/>
</g>
<!-- tag_vim -->
<g id="node4" class="node">
<title>tag_vim</title>
<ellipse fill="none" stroke="black" cx="191.75" cy="-196" rx="27" ry="18"/>
<text text-anchor="middle" x="191.75" y="-190.95" font-family="Times,serif" font-size="14.00">vim</text>
</g>
<!-- gnome_terminal&#45;&#45;tag_vim -->
<g id="edge2" class="edge">
<title>gnome_terminal&#45;&#45;tag_vim</title>
<path fill="none" stroke="black" d="M120.21,-180.37C135.95,-183.86 152.57,-187.54 165.72,-190.46"/>
</g>
<!-- vscode -->
<g id="node2" class="node">
<title>vscode</title>
<polygon fill="none" stroke="black" points="94.88,-133 40.88,-133 40.88,-97 94.88,-97 94.88,-133"/>
<text text-anchor="middle" x="67.88" y="-109.95" font-family="Times,serif" font-size="14.00">vscode</text>
</g>
<!-- vscode&#45;&#45;tag_shell -->
<g id="edge3" class="edge">
<title>vscode&#45;&#45;tag_shell</title>
<path fill="none" stroke="black" d="M95.32,-120.86C115.9,-125.42 144.31,-131.71 164.77,-136.25"/>
</g>
<!-- tag_coding -->
<g id="node5" class="node">
<title>tag_coding</title>
<ellipse fill="none" stroke="black" cx="191.75" cy="-88" rx="36" ry="18"/>
<text text-anchor="middle" x="191.75" y="-82.95" font-family="Times,serif" font-size="14.00">coding</text>
</g>
<!-- vscode&#45;&#45;tag_coding -->
<g id="edge4" class="edge">
<title>vscode&#45;&#45;tag_coding</title>
<path fill="none" stroke="black" d="M95.32,-109.14C113.8,-105.05 138.6,-99.55 158.28,-95.19"/>
</g>
<!-- cheatsheet_bash -->
<g id="node8" class="node">
<title>cheatsheet_bash</title>
<polygon fill="none" stroke="black" points="339.62,-160 285.62,-160 285.62,-124 339.62,-124 339.62,-160"/>
<text text-anchor="middle" x="312.62" y="-136.95" font-family="Times,serif" font-size="14.00">Bash</text>
</g>
<!-- tag_shell&#45;&#45;cheatsheet_bash -->
<g id="edge7" class="edge">
<title>tag_shell&#45;&#45;cheatsheet_bash</title>
<path fill="none" stroke="black" d="M220.32,-142C239.93,-142 266.12,-142 285.42,-142"/>
</g>
<!-- cheatsheet_vim_basics -->
<g id="node6" class="node">
<title>cheatsheet_vim_basics</title>
<polygon fill="none" stroke="black" points="352.12,-268 273.12,-268 273.12,-232 352.12,-232 352.12,-268"/>
<text text-anchor="middle" x="312.62" y="-244.95" font-family="Times,serif" font-size="14.00">Vim Basics</text>
</g>
<!-- tag_vim&#45;&#45;cheatsheet_vim_basics -->
<g id="edge5" class="edge">
<title>tag_vim&#45;&#45;cheatsheet_vim_basics</title>
<path fill="none" stroke="black" d="M214.83,-206.03C231.08,-213.41 253.59,-223.64 272.81,-232.37"/>
</g>
<!-- cheatsheet_vim_advanced -->
<g id="node7" class="node">
<title>cheatsheet_vim_advanced</title>
<polygon fill="none" stroke="black" points="361.49,-214 263.74,-214 263.74,-178 361.49,-178 361.49,-214"/>
<text text-anchor="middle" x="312.62" y="-190.95" font-family="Times,serif" font-size="14.00">Vim Advanced</text>
</g>
<!-- tag_vim&#45;&#45;cheatsheet_vim_advanced -->
<g id="edge6" class="edge">
<title>tag_vim&#45;&#45;cheatsheet_vim_advanced</title>
<path fill="none" stroke="black" d="M219.13,-196C232.12,-196 248.21,-196 263.31,-196"/>
</g>
<!-- cheatsheet_c -->
<g id="node9" class="node">
<title>cheatsheet_c</title>
<polygon fill="none" stroke="black" points="341.24,-106 283.99,-106 283.99,-70 341.24,-70 341.24,-106"/>
<text text-anchor="middle" x="312.62" y="-82.95" font-family="Times,serif" font-size="14.00">C&#45;Lang</text>
</g>
<!-- tag_coding&#45;&#45;cheatsheet_c -->
<g id="edge9" class="edge">
<title>tag_coding&#45;&#45;cheatsheet_c</title>
<path fill="none" stroke="black" d="M228.09,-88C245.88,-88 267.15,-88 283.77,-88"/>
</g>
<!-- cheatsheet_rust -->
<g id="node10" class="node">
<title>cheatsheet_rust</title>
<polygon fill="none" stroke="black" points="339.62,-52 285.62,-52 285.62,-16 339.62,-16 339.62,-52"/>
<text text-anchor="middle" x="312.62" y="-28.95" font-family="Times,serif" font-size="14.00">Rust</text>
</g>
<!-- tag_coding&#45;&#45;cheatsheet_rust -->
<g id="edge8" class="edge">
<title>tag_coding&#45;&#45;cheatsheet_rust</title>
<path fill="none" stroke="black" d="M219.13,-76.02C238.83,-67.07 265.63,-54.89 285.31,-45.95"/>
</g>
</g>
</svg>
